<?xml version="1.0" encoding="UTF-8" standalone="no"?>
<svg
   width="24"
   height="24"
   fill-rule="evenodd"
   clip-rule="evenodd"
   version="1.1"
   id="svg1"
   sodipodi:docname="l1.svg"
   inkscape:version="1.4.2 (ebf0e940, 2025-05-08)"
   xmlns:inkscape="http://www.inkscape.org/namespaces/inkscape"
   xmlns:sodipodi="http://sodipodi.sourceforge.net/DTD/sodipodi-0.dtd"
   xmlns="http://www.w3.org/2000/svg"
   xmlns:svg="http://www.w3.org/2000/svg">
  <defs
     id="defs1" />
  <sodipodi:namedview
     id="namedview1"
     pagecolor="#ffffff"
     bordercolor="#000000"
     borderopacity="0.25"
     inkscape:showpageshadow="2"
     inkscape:pageopacity="0.0"
     inkscape:pagecheckerboard="0"
     inkscape:deskcolor="#d1d1d1"
     inkscape:zoom="23.763393"
     inkscape:cx="12.287808"
     inkscape:cy="12.519256"
     inkscape:window-width="1512"
     inkscape:window-height="920"
     inkscape:window-x="236"
     inkscape:window-y="1114"
     inkscape:window-maximized="1"
     inkscape:current-layer="svg1" />
  <path
     d="M 19.098,10.77551 C 15.23,8.4785102 8.85,8.2675102 5.157,9.3885102 c -0.593,0.18 -1.22,-0.155 -1.399,-0.748 -0.18,-0.593 0.154,-1.22 0.748,-1.4 4.239,-1.287 11.285,-1.038 15.738,1.605 0.533,0.317 0.708,1.005 0.392,1.5379998 -0.316,0.533 -1.005,0.709 -1.538,0.392 z M 18.972,14.041 C 18.7,14.481 18.125,14.619 17.685,14.349 14.46,12.367 9.543,11.792 5.727,12.95 5.233,13.1 4.71,12.821 4.56,12.327 4.411,11.832 4.69,11.311 5.184,11.16 c 4.358,-1.322 9.776,-0.682 13.48,1.595 0.44,0.27 0.578,0.847 0.308,1.286 z m -1.469,3.267 c -0.215,0.354 -0.676,0.465 -1.028,0.249 C 13.657,15.835 10.11,15.446 5.933,16.4 5.531,16.492 5.13,16.24 5.038,15.838 4.946,15.435 5.197,15.034 5.6,14.942 c 4.571,-1.045 8.492,-0.595 11.655,1.338 0.353,0.215 0.464,0.676 0.248,1.028 z M 21.173774,2.9877888 C 28.603676,5.659212 2.7641198,6.9863106 1.4307721,13.935751 0.98727658,16.24726 10.831695,18.653777 7.3372781,19.265878 0.63722113,20.439495 22.532687,22.027285 18.438475,20.801804 -4.6763847,13.883053 24.975667,14.966994 21.769679,14.104076 -0.44072162,8.1259619 10.916793,1.1895504 21.382394,1.5977899 c 2.619472,0.1021797 -3.652668,0.1516904 -0.20862,1.3899989 z"
     id="path1"
     sodipodi:nodetypes="cccccscccccccccccccccsssssss" />
</svg>
