<?xml version="1.0" encoding="UTF-8" standalone="no"?>
<!-- Created with Inkscape (http://www.inkscape.org/) -->

<svg
   width="800mm"
   height="800mm"
   viewBox="0 0 800 800.00001"
   version="1.1"
   id="svg1"
   inkscape:version="1.4.2 (ebf0e940, 2025-05-08)"
   sodipodi:docname="logo.svg"
   xmlns:inkscape="http://www.inkscape.org/namespaces/inkscape"
   xmlns:sodipodi="http://sodipodi.sourceforge.net/DTD/sodipodi-0.dtd"
   xmlns="http://www.w3.org/2000/svg"
   xmlns:svg="http://www.w3.org/2000/svg">
  <sodipodi:namedview
     id="namedview1"
     pagecolor="#ffffff"
     bordercolor="#000000"
     borderopacity="0.25"
     inkscape:showpageshadow="2"
     inkscape:pageopacity="0.0"
     inkscape:pagecheckerboard="0"
     inkscape:deskcolor="#d1d1d1"
     inkscape:document-units="mm"
     inkscape:zoom="0.19928318"
     inkscape:cx="1229.4063"
     inkscape:cy="1362.3829"
     inkscape:window-width="1512"
     inkscape:window-height="920"
     inkscape:window-x="0"
     inkscape:window-y="34"
     inkscape:window-maximized="1"
     inkscape:current-layer="layer1" />
  <defs
     id="defs1">
    <inkscape:path-effect
       effect="spiro"
       id="path-effect77"
       is_visible="true"
       lpeversion="1" />
    <clipPath
       clipPathUnits="userSpaceOnUse"
       id="clipPath54">
      <path
         id="path54"
         style="stroke-width:0.0999999;stroke-linecap:square;paint-order:markers fill stroke;stop-color:#000000"
         d="m 1691.1994,-792.32001 h 1634.8919 v 92.82806 H 1691.1994 Z" />
    </clipPath>
    <rect
       x="352.33403"
       y="47.505713"
       width="2494.0499"
       height="411.71618"
       id="rect5" />
    <rect
       x="328.58118"
       y="39.588094"
       width="2224.8509"
       height="269.19904"
       id="rect3" />
    <rect
       x="423.5926"
       y="87.093806"
       width="2414.8737"
       height="241.48737"
       id="rect2" />
  </defs>
  <g
     inkscape:label="Layer 1"
     inkscape:groupmode="layer"
     id="layer1">
    <g
       id="g1"
       transform="translate(-1.0041199,0.80862819)">
      <ellipse
         style="fill:#cccccc;fill-opacity:1;stroke:#000000;stroke-width:14.9429;stroke-linecap:round;stroke-linejoin:round;stroke-dasharray:none;stroke-dashoffset:0;stroke-opacity:1;paint-order:normal"
         id="path73"
         cx="401.00412"
         cy="593.16534"
         rx="309.20126"
         ry="186.61194" />
      <path
         style="font-variation-settings:normal;vector-effect:none;fill:#000000;fill-opacity:1;stroke:#000000;stroke-width:12.737;stroke-linecap:round;stroke-linejoin:round;stroke-miterlimit:4;stroke-dasharray:none;stroke-dashoffset:0;stroke-opacity:1;-inkscape-stroke:none;paint-order:normal;stop-color:#000000"
         id="path6-3"
         d="m 617.05332,266.61101 c 0.57818,-5.77081 0.93927,-9.62408 1.77286,-15.97461 1.31315,-10.00326 4.64755,-32.5228 6.00712,-41.58267 12.84786,-85.61452 -4.82734,33.08267 6.84643,-45.43401 0.85373,-5.89977 1.89655,-11.79844 2.56103,-17.69918 0.68861,-6.11516 3.02131,-12.67379 -1.94978,-17.94002 -0.64081,-0.67875 0.93957,1.81973 0.158,2.50782 -4.46798,3.93329 -10.22664,7.09681 -15.20234,10.73595 -7.07737,5.17624 -13.96815,10.47123 -20.95226,15.7068 -24.18568,17.20901 -24.88067,18.13591 -50.30621,34.49573 -7.75181,4.98785 -15.71509,9.81416 -23.57262,14.72129 0,0 -4.80428,0.31123 -4.80428,0.31123 v 0 c 8.03602,-4.91512 16.21766,-9.71694 24.10807,-14.74521 25.18854,-16.05166 26.1161,-17.31046 49.52326,-34.41344 6.50607,-5.20285 13.02312,-10.39941 19.51821,-15.60856 7.28622,-5.84372 15.66133,-16.16663 29.87871,-14.90456 2.75714,0.24474 1.31182,3.74461 1.22772,5.68772 -0.18817,4.34638 -5.08012,28.56725 -5.47077,30.58674 -1.24906,7.19164 -2.61105,14.38063 -3.74714,21.5749 -2.56773,16.2602 -4.50029,30.56867 -5.77426,46.80565 -0.88138,11.23378 -1.10213,18.65335 -0.72051,29.24299 0.056,1.55112 0.25931,3.0898 0.38906,4.63471 z" />
      <circle
         style="fill:#e6e6e6;fill-opacity:1;stroke:#000000;stroke-width:12.737;stroke-linecap:round;stroke-linejoin:round;stroke-dasharray:none;stroke-dashoffset:0;stroke-opacity:1;paint-order:normal"
         id="path72"
         cx="408.66599"
         cy="435.14001"
         r="300.72693" />
      <path
         style="fill:#ececec;stroke:#000000;stroke-width:0.484608;stroke-dasharray:none;stroke-opacity:1"
         d="m 359.0838,65.436889 c -1.77238,2.42893 -0.86042,5.20754 -1.19713,7.90127 -0.15142,1.21145 -0.54564,2.38288 -0.71832,3.59148 -0.1355,0.94812 0.10567,1.92132 0,2.87319 -0.1071,0.96501 -0.39473,1.9059 -0.47886,2.8732 -0.31688,3.64421 0.0578,7.34888 -0.23943,11.01388 -0.11689,1.4407 -0.40289,2.86634 -0.47885,4.309781 -0.17209,3.26771 0,6.54447 0,9.81672 0,2.47414 -0.15929,4.95339 0,7.42239 0.0828,1.28425 0.33675,2.55188 0.47885,3.83093 0.0973,0.87615 0.044,1.77414 0.23943,2.63375 0.54428,2.39478 2.44758,6.83718 3.8309,8.859 0.51389,0.75101 1.15126,1.41147 1.67605,2.15489 1.49861,2.12302 2.2376,4.29068 4.07037,6.22523 1.99514,2.10603 4.45563,3.92622 6.70408,5.74638 0.88165,0.71372 1.69574,1.51705 2.63376,2.15489 1.06418,0.72365 2.24854,1.25335 3.35206,1.91545 1.87922,1.12755 3.54679,2.6114 5.50695,3.59148 1.53766,0.76885 3.20597,1.24404 4.78862,1.91548 5.43743,2.30678 10.96871,4.59842 16.28143,7.18295 1.54089,0.74966 2.99069,1.68187 4.54915,2.39435 3.66632,1.67599 7.68219,2.56071 11.49279,3.8309 1.36497,0.45502 2.67204,1.0976 4.07036,1.43659 1.25065,0.30319 2.56042,0.27394 3.83091,0.47887 1.20526,0.19442 2.37864,0.57833 3.5915,0.71831 0.87207,0.10056 1.75858,-0.07 2.63371,0 2.88793,0.23103 5.93128,0.91259 8.85899,0.47885 4.06432,-0.60214 7.6373,-3.02462 11.49278,-4.30982 2.82287,-0.94092 2.32504,-0.45364 5.02805,-1.43658 4.27716,-1.55532 1.50001,-0.89903 5.98582,-2.39432 2.85725,-0.95241 5.68244,-1.69952 8.38012,-3.11261 2.68962,-1.40884 4.99966,-3.23734 7.42241,-5.02807 1.35744,-1.0033 4.00748,-2.45435 5.02809,-4.07035 0.49881,-0.78981 0.59524,-1.7728 0.95773,-2.63376 0.11206,-0.2663 1.27963,-2.0724 0.95772,-2.39432 -1.26965,-1.26966 -1.9947,-0.28897 -3.8309,-1.43659 -2.06451,-1.29031 3.49671,0.33553 -2.87323,-1.67602 -0.68915,-0.21764 -1.46263,-0.0318 -2.15486,-0.23944 -0.92371,-0.2771 -1.75583,-0.7981 -2.63377,-1.19717 -2.31447,-0.79811 -4.57516,-1.77403 -6.94356,-2.3943 -1.00663,-0.26365 -2.11086,0.0422 -3.11257,-0.23945 -1.58393,-0.44547 -2.9969,-1.37005 -4.54924,-1.91545 -1.40668,-0.49423 -2.89529,-0.72566 -4.30977,-1.19716 -1.70148,-0.56716 -3.33114,-1.33493 -5.02807,-1.91546 -1.33812,-0.45777 -2.74255,-0.7103 -4.07037,-1.19716 -1.9246,-0.70569 -4.43489,-2.15778 -6.22523,-3.11261 -3.90895,-2.08478 -4.69066,-2.29073 -8.38014,-5.02808 -1.0915,-0.80984 -2.0513,-1.78472 -3.11258,-2.63377 -1.33376,-1.06698 -2.74844,-2.03103 -4.07037,-3.11262 -1.31325,-1.07448 -2.50215,-2.29682 -3.8309,-3.35206 -2.25428,-1.79014 -4.84268,-3.26209 -6.94354,-5.2675 -2.19009,-2.09052 -2.4475,-2.96104 -4.54922,-4.78864 -1.15689,-1.00599 -2.46943,-1.82849 -3.5915,-2.87319 -2.56218,-2.38549 -4.70755,-5.186401 -7.18297,-7.661821 -2.27494,-2.27497 -4.58885,-4.51181 -6.94353,-6.70413 -2.23654,-2.08228 -4.7331,-3.87582 -6.94355,-5.98579 -2.07547,-1.98113 -3.81469,-4.32554 -5.98576,-6.22524 -0.60065,-0.52557 -1.29608,-0.93331 -1.91551,-1.43659 -0.65841,-0.53499 -1.21895,-1.19153 -1.91545,-1.67604 -1.14603,-0.79727 -2.48093,-1.30878 -3.59144,-2.15488 -0.58532,-0.44593 -0.85801,-1.22142 -1.43661,-1.67603 -0.5613,-0.44103 -1.30333,-0.59045 -1.91545,-0.95772 -0.19359,-0.11613 -0.29107,-0.35365 -0.47886,-0.47887 -0.39844,-0.26562 -0.96426,0.0786 -1.43664,0 -1.69942,-0.28325 -3.33138,-0.89775 -5.02805,-1.19716 -0.21202,-0.0375 -0.92284,0.0249 -1.19718,0 -3.60325,-0.32756 -0.70868,-0.23944 -4.54922,-0.23944 z"
         id="path19" />
      <ellipse
         style="fill:#c87137;fill-opacity:1;stroke:#000000;stroke-width:14.5073;stroke-linecap:round;stroke-linejoin:round;stroke-dasharray:none;stroke-dashoffset:0;stroke-opacity:1;paint-order:normal"
         id="path74"
         cx="445.55997"
         cy="539.37744"
         rx="252.19043"
         ry="225.72633"
         transform="matrix(0.98969739,-0.14317499,0,1,0,0)" />
      <path
         style="fill:#e6e6e6;stroke-width:0.483846"
         d="m 129.94713,202.15274 c 2.17189,5.72623 2.68012,11.91395 4.54921,17.71799 0.59122,1.83587 1.75907,3.4464 2.39432,5.26751 0.56747,1.62672 0.70899,3.3758 1.19717,5.02808 0.55068,1.86382 1.36061,3.64429 1.91547,5.50692 0.56364,1.89227 0.82883,3.86787 1.43658,5.7464 2.09054,6.46162 4.88434,12.68283 6.94353,19.15457 0.35834,1.12622 3.97576,15.07654 4.07036,15.56309 0.56876,2.92506 1.0113,5.88495 1.19716,8.85899 1.37214,21.95413 -1.36763,-0.62932 0.47887,19.15459 0.70658,7.57053 1.92304,15.20578 4.07036,22.50663 0.28485,0.96852 0.68751,1.90045 0.95771,2.87319 1.01358,3.64882 -0.44656,0.16824 0.71829,1.91545 0.0443,0.0663 -0.0797,0.23947 0,0.23947 0.11278,0 0.14667,-0.1752 0.23944,-0.23947 0.94639,-0.65518 1.93282,-1.25167 2.87318,-1.91545 9.71885,-6.86034 0.89337,-0.58488 10.53504,-8.61955 2.48973,-2.07482 5.16501,-3.9195 7.66181,-5.98581 2.13441,-1.76639 4.0932,-3.73781 6.22523,-5.50697 1.62152,-1.34552 3.37129,-2.52911 5.02809,-3.83089 8.30295,-6.52376 1.84331,-1.54033 9.09845,-7.66187 1.17172,-0.98863 2.43539,-1.86623 3.59145,-2.87319 1.31994,-1.14961 2.4641,-2.498 3.83097,-3.59144 1.03721,-0.82979 2.25743,-1.40238 3.35203,-2.1549 4.09078,-2.81247 7.95112,-5.9476 11.97159,-8.85899 3.67797,-2.66335 7.78495,-5.1512 11.01391,-8.38014 1.19979,-1.19981 2.26164,-2.53087 3.35204,-3.83091 0.98521,-1.17468 2.04202,-2.30322 2.87317,-3.59151 0.77402,-1.19968 1.1876,-2.60266 1.91547,-3.8309 0.55342,-0.93388 1.37687,-1.69125 1.91545,-2.63378 0.11888,-0.20785 -0.10696,-0.50412 0,-0.71826 0.18985,-0.37969 1.02061,-0.59253 0.71832,-1.1972 -0.36881,-0.73757 -2.59129,-1.42172 -2.63377,-1.43658 -2.45373,-0.85878 -4.99301,-1.46882 -7.42243,-2.39432 -0.93448,-0.35601 -1.72461,-1.0199 -2.6337,-1.43659 -1.01056,-0.46318 -2.09826,-0.7424 -3.11266,-1.19714 -1.3028,-0.58404 -2.54622,-1.29258 -3.8309,-1.91549 -1.3493,-0.65417 -2.75846,-1.1892 -4.07036,-1.91545 -3.16151,-1.75013 -6.12545,-3.85206 -9.33785,-5.50692 -2.06849,-1.06561 -4.31035,-1.75447 -6.46468,-2.63377 -3.4167,-1.39454 -6.88912,-2.65099 -10.29559,-4.07037 -6.39439,-2.66428 -12.56659,-5.84205 -18.91513,-8.61952 -2.22744,-0.97453 -4.465,-1.92586 -6.7041,-2.87319 -0.95554,-0.40431 -1.97233,-0.68242 -2.87317,-1.19718 -0.79013,-0.45147 -1.41899,-1.1408 -2.15491,-1.67601 -1.02059,-0.74227 -2.04571,-1.48105 -3.11264,-2.15489 -1.08809,-0.68722 -2.201,-1.33994 -3.35204,-1.91547 -2.68593,-1.34295 -2.93008,-0.97707 -5.50694,-2.39431 -8.26884,-4.54787 5.61241,2.32734 -5.26752,-3.11264 -3.97813,-1.98904 -8.0907,-3.61937 -12.21105,-5.26749 -2.16193,-0.86479 -3.98604,-1.83455 -6.22523,-2.39432 z"
         id="path7" />
      <path
         style="fill:#000000;fill-opacity:1;stroke:#000000;stroke-width:12.737;stroke-linecap:round;stroke-linejoin:round;stroke-dasharray:none;stroke-dashoffset:0;stroke-opacity:1;paint-order:normal"
         id="path75"
         d="m 415.34365,651.33308 c 2.51803,0.0705 6.1831,0.26245 8.51852,-0.17994 5.09709,-0.96541 10.01357,-3.10908 14.03987,-6.442 8.10985,-6.71319 11.19626,-12.72997 17.25232,-21.54154 9.95768,-17.20396 17.48234,-35.70446 22.3599,-54.96844 1.86702,-7.37385 2.12335,-9.77702 3.27782,-16.85207 0.2203,-1.78079 0.37293,-3.57132 0.66118,-5.34239 0.34583,-2.1249 3.27677,-8.07351 -5.48785,-3.11839 -1.02632,0.58025 0.97765,2.14581 1.45263,3.22486 3.98797,9.05957 0.92295,2.52133 6.00084,12.88962 3.98628,6.25741 6.22493,10.37674 11.37442,15.89342 8.36335,8.95969 18.93517,15.80399 29.99331,20.95337 3.84586,1.79087 7.88778,3.12642 11.83169,4.68965 14.22622,4.14444 29.01275,8.79496 44.03541,7.51997 4.60338,-0.39072 7.0498,-1.26842 11.35576,-2.46985 3.43054,-1.55279 4.62224,-1.84578 7.56096,-4.07008 0.90637,-0.686 1.68342,-1.52787 2.52515,-2.29186 0,0 -6.76546,-2.24869 -6.76546,-2.24869 v 0 c -0.81822,0.73049 -1.57378,1.5379 -2.45464,2.19153 -2.88651,2.14192 -4.05835,2.41702 -7.42134,3.89729 -4.3287,1.18416 -6.53984,1.9868 -11.179,2.34847 -7.00869,0.54633 -8.82009,-0.19828 -16.08838,-0.76935 -1.25362,-0.0986 -2.5426,0.14047 -3.7702,-0.13252 -3.80076,-0.84427 -7.48879,-2.13362 -11.2332,-3.20041 -3.95074,-1.53818 -7.9991,-2.8461 -11.85225,-4.61462 -10.99567,-5.04684 -21.55286,-11.80262 -29.88052,-20.66119 -5.14573,-5.47375 -7.323,-9.50215 -11.28822,-15.72461 -3.15047,-6.56744 -3.33135,-6.60618 -5.77037,-12.79635 -0.45562,-1.15639 -0.22099,-2.84 -1.27065,-3.50567 -7.60261,-4.8216 -7.86839,-4.378 -8.47005,0.27046 -0.22981,1.77543 -0.36133,3.56216 -0.54199,5.34325 -1.03333,7.07932 -1.23744,9.45669 -3.01371,16.84089 -4.63203,19.25605 -12.03916,37.74208 -22.11077,54.80832 -6.23431,8.80534 -9.21798,14.56562 -17.51995,21.14965 -6.95126,5.51274 -14.2713,6.79163 -22.75706,6.0182 z" />
      <rect
         style="fill:#f4a9dd;fill-opacity:1;stroke:#000000;stroke-width:0.38127;stroke-linecap:round;stroke-linejoin:round;stroke-dasharray:none;stroke-dashoffset:0;stroke-opacity:1;paint-order:normal"
         id="rect92"
         width="36.745571"
         height="34.186497"
         x="298.04913"
         y="589.92566"
         ry="0"
         transform="matrix(0.97532238,-0.22078554,0.27424979,0.96165849,0,0)" />
      <path
         style="fill:#000000;fill-opacity:1;stroke:#000000;stroke-width:12.737;stroke-linecap:round;stroke-linejoin:round;stroke-dasharray:none;stroke-dashoffset:0;stroke-opacity:1;paint-order:normal"
         id="path76"
         d="m 442.17159,512.17217 c 5.93196,5.88838 12.26187,11.34807 18.27591,17.14842 1.01268,0.98609 2.05573,1.94191 3.03805,2.95829 4.93523,5.10619 7.14392,9.24406 15.28458,10.68465 1.03514,0.18317 1.76436,-1.14341 2.64649,-1.7151 4.27137,-3.9532 7.64694,-8.85174 10.29337,-14.02217 0.87467,-1.70898 2.20997,-4.93334 2.97299,-6.7284 1.27573,-3.19257 2.13065,-6.52484 2.90032,-9.86807 0.28437,-1.23522 1.01431,-4.45973 1.1191,-5.84398 0.0548,-0.72733 -0.043,-1.45816 -0.0643,-2.18726 -0.35625,-0.60466 -0.59218,-1.29884 -1.06874,-1.814 -0.51473,-0.55655 -1.18746,-0.9515 -1.84243,-1.33332 -3.53329,-2.05967 -6.73699,-4.72306 -10.85466,-5.1367 -2.41444,-0.24251 -3.73867,0.11064 -6.13641,0.46391 -7.67624,1.47648 -14.64012,5.10318 -21.56486,8.5655 -5.24425,2.55652 -10.53052,4.9957 -16.22907,6.32331 -0.61601,0.0967 -1.232,0.19356 -1.84801,0.29033 0,0 5.75447,4.34469 5.75447,4.34469 v 0 c 0.62354,-0.11249 1.24713,-0.22528 1.87069,-0.33791 5.68825,-1.44675 10.98461,-3.93018 16.2369,-6.51646 6.87245,-3.44529 13.81307,-7.00017 21.46283,-8.34771 2.49782,-0.29779 3.5174,-0.59086 6.00072,-0.24018 0.84797,0.1196 2.91921,1.37083 2.49077,0.62936 -0.79347,-1.37333 -2.65507,-1.76908 -3.78967,-2.87744 -0.97361,-0.95114 4.47395,2.53934 3.20519,2.53009 0.0548,0.69127 0.197,1.38112 0.1644,2.07381 -0.0653,1.39254 -0.77124,4.57398 -1.05249,5.81208 -0.75157,3.30856 -1.59777,6.60659 -2.83667,9.77151 -3.18924,7.58973 -6.69265,14.84934 -13.04932,20.3595 -4.37668,2.45992 -2.39799,0.32409 1.43117,5.02323 0.54432,0.66804 -1.47612,-0.90833 -2.11506,-1.48656 -2.86821,-2.59563 -4.86254,-6.09714 -7.98284,-8.4529 -5.96886,-5.78046 -12.31218,-11.15752 -18.11035,-17.11664 z" />
      <circle
         id="path88"
         style="fill:#ffffff;stroke:#000000;stroke-width:0.483846"
         cx="108.1588"
         cy="415.24744"
         r="0.00041977401" />
      <circle
         id="path89"
         style="fill:#ffffff;stroke:#000000;stroke-width:0.484609;stroke-dasharray:none"
         cx="472.09589"
         cy="532.56927"
         r="0.00041977401" />
      <circle
         id="path90"
         style="fill:#ffffff;stroke:#000000;stroke-width:0.484609;stroke-dasharray:none"
         cx="653.04999"
         cy="336.05072"
         r="0.0059855096" />
      <circle
         id="path91"
         style="fill:#000000;stroke:#000000;stroke-width:0.483846"
         cx="444.80063"
         cy="514.85132"
         r="0.0042257402" />
      <circle
         id="path97"
         style="fill:#a05a2c;stroke:#000000;stroke-width:0.483846"
         cx="442.40622"
         cy="644.6236"
         r="0.12604629" />
      <path
         style="font-variation-settings:normal;opacity:1;vector-effect:none;fill:#000000;fill-opacity:1;stroke:#000000;stroke-width:12.737;stroke-linecap:round;stroke-linejoin:round;stroke-miterlimit:4;stroke-dasharray:none;stroke-dashoffset:0;stroke-opacity:1;-inkscape-stroke:none;paint-order:normal;stop-color:#000000;stop-opacity:1"
         id="path6"
         d="m 162.8242,331.00909 c -1.17928,-5.67851 -1.94188,-9.47277 -3.43584,-15.70111 -2.35337,-9.81077 -8.02751,-31.85736 -10.32828,-40.72507 -21.74205,-83.79855 8.26496,32.39532 -11.56626,-44.46736 -1.4668,-5.77794 -3.12153,-11.53497 -4.40023,-17.33372 -1.32515,-6.00942 -4.33181,-12.28774 0.0605,-18.04556 0.56621,-0.74212 -0.74386,1.90813 0.10554,2.5106 4.85526,3.4438 10.91351,5.98695 16.24292,9.08506 7.58049,4.40671 14.98783,8.95105 22.48176,13.42653 25.85471,14.58188 26.64292,15.43091 53.64176,29.03844 8.23149,4.14875 16.65635,8.11466 24.98453,12.17204 0,0 4.81044,-0.19353 4.81044,-0.19353 v 0 c -8.5065,-4.04665 -17.14598,-7.96536 -25.51954,-12.13976 -26.73085,-13.32589 -27.7851,-14.48065 -52.85447,-29.03862 -7.01511,-4.493 -14.04048,-8.97855 -21.04531,-13.47897 -7.85807,-5.04865 -17.26809,-14.43784 -31.27513,-11.69397 -2.71635,0.53207 -0.91251,3.86138 -0.62541,5.78498 0.64226,4.30279 8.04352,27.87829 8.64347,29.84577 1.99526,7.02131 4.10255,14.02815 5.98569,21.06392 4.25625,15.90193 7.67645,29.92939 10.6436,45.94371 2.05284,11.07974 3.04928,18.43539 3.77863,29.00678 0.10681,1.54843 0.0656,3.09999 0.0984,4.64997 z" />
      <path
         style="fill:#e6e6e6;stroke-width:0.483846"
         d="m 234.57902,272.06695 -32.32334,-4.30978"
         id="path8" />
      <ellipse
         style="fill:#ffffff;stroke-width:0.483885"
         id="path14"
         cx="125.15796"
         cy="589.49023"
         rx="86.002655"
         ry="35.307175"
         transform="matrix(0.92422762,-0.38184199,0.36552743,0.93080057,0,0)" />
      <path
         style="font-variation-settings:normal;opacity:1;vector-effect:none;fill:#000000;fill-opacity:1;stroke:#000000;stroke-width:12.737;stroke-linecap:round;stroke-linejoin:round;stroke-miterlimit:4;stroke-dasharray:none;stroke-dashoffset:0;stroke-opacity:1;-inkscape-stroke:none;paint-order:normal;stop-color:#000000;stop-opacity:1"
         id="path10"
         d="m 257.39354,544.06123 c 3.31877,1.65429 6.87248,2.71172 10.52207,3.29352 8.1222,1.29483 12.94974,2.02463 20.85651,1.56867 3.78115,-0.21785 7.5341,-0.78403 11.30111,-1.17627 4.42583,-0.80644 8.8727,-1.5026 13.27742,-2.41943 9.14828,-1.9042 18.66674,-4.32296 27.57972,-7.16057 7.74829,-2.46675 16.26434,-5.65715 23.64401,-9.18678 3.2383,-1.54882 6.33338,-3.38954 9.50006,-5.08429 9.0188,-5.28807 17.47489,-11.60591 24.70844,-19.24718 3.40908,-3.60121 4.05479,-4.62456 6.97695,-8.4179 2.35155,-3.27949 4.80927,-6.57552 6.38683,-10.33746 0.48779,-1.1633 0.56198,-1.53673 0.89941,-2.70463 0.29726,-1.39025 0.14794,-0.71485 0.44629,-2.02664 0,0 -5.54127,-0.97519 -5.54127,-0.97519 v 0 c -0.28351,1.31083 -0.14757,0.64381 -0.40659,2.00134 -0.30115,1.10791 -0.38803,1.53073 -0.81547,2.6384 -1.44089,3.7338 -3.74692,7.03822 -6.01398,10.28429 -2.91759,3.88761 -3.36747,4.68551 -6.80814,8.38534 -7.07192,7.60471 -15.35182,13.92239 -24.20072,19.231 -3.11614,1.69526 -6.15978,3.5359 -9.34846,5.08578 -7.32486,3.5603 -15.67153,6.73796 -23.38619,9.20289 -8.83371,2.82241 -18.55086,5.27885 -27.63219,7.10006 -4.47659,0.89773 -8.99902,1.54444 -13.49852,2.31664 -16.14131,1.45821 -6.46507,0.98644 -20.63571,0.9205 -0.71792,-0.004 -1.44139,0.17518 -2.1524,0.0714 -3.49017,-0.50774 -6.84315,-1.56435 -10.02941,-3.07909 z" />
      <path
         style="font-variation-settings:normal;opacity:1;vector-effect:none;fill:#000000;fill-opacity:1;stroke:#000000;stroke-width:12.737;stroke-linecap:round;stroke-linejoin:round;stroke-miterlimit:4;stroke-dasharray:none;stroke-dashoffset:0;stroke-opacity:1;-inkscape-stroke:none;paint-order:normal;stop-color:#000000;stop-opacity:1"
         id="path11"
         d="m 412.01744,472.61769 c -2.15601,-3.30546 -4.92611,-6.17259 -7.97437,-8.63428 -1.23587,-0.99806 -2.47704,-2.00057 -3.81598,-2.84939 -1.59407,-1.01059 -3.30776,-1.81008 -4.96162,-2.71512 -2.07226,-0.79035 -4.1056,-1.6969 -6.21674,-2.37103 -2.32694,-0.74303 -4.68751,-1.39554 -7.07957,-1.87479 -7.15923,-1.43433 -13.41994,-2.54043 -20.61298,-2.34416 -7.95011,0.21695 -11.5659,1.23276 -19.52852,2.70978 -3.66634,0.99958 -7.37448,1.85341 -10.99903,2.9988 -11.07602,3.50019 -22.04042,8.26089 -32.13476,14.07177 -7.91545,4.55656 -9.46841,6.0854 -16.5756,11.49978 -2.15194,1.88699 -4.36731,3.70159 -6.45582,5.66097 -1.80146,1.69014 -3.5149,3.47665 -5.20646,5.28059 -3.75656,4.00608 -7.25716,8.31454 -10.197,12.98481 -0.78872,1.25294 -1.47892,2.5676 -2.21835,3.85145 -2.91688,5.63126 -4.77723,11.74737 -5.85471,18.00997 -0.16879,0.98151 -0.28463,1.97183 -0.427,2.95779 -0.38061,2.75422 -0.24742,5.52706 -0.0697,8.29008 0,0 5.4848,0.79811 5.4848,0.79811 v 0 c -0.20143,-2.72881 -0.41014,-5.46758 -0.0861,-8.19734 0.12527,-0.97857 0.22043,-1.96179 0.3759,-2.93581 0.99148,-6.21358 2.87214,-12.2607 5.70691,-17.85516 0.72486,-1.27379 1.40547,-2.57492 2.17472,-3.82135 2.86169,-4.63701 6.23028,-8.95077 9.88568,-12.96046 1.64375,-1.80303 3.30986,-3.58897 5.06808,-5.27634 2.04236,-1.96008 4.21709,-3.77224 6.32562,-5.65834 6.94774,-5.3503 8.61452,-6.98003 16.36587,-11.47386 10.09437,-5.85225 20.98094,-10.54362 32.09683,-13.98067 3.65291,-1.12948 7.39045,-1.95589 11.08569,-2.93387 8.14541,-1.42671 11.6387,-2.38892 19.74809,-2.53301 0.70079,-0.0128 8.51859,0.18632 11.1458,0.7721 6.90156,1.53874 6.72297,1.716 13.10544,4.11834 1.62131,0.87842 3.3036,1.64857 4.86387,2.6352 1.31255,0.83001 2.52262,1.8204 3.73158,2.80025 2.93675,2.3802 5.63884,5.14141 7.62763,8.39835 z" />
      <circle
         style="fill:#008080;stroke-width:0.483846"
         id="path15"
         cx="288.59341"
         cy="526.40271"
         transform="rotate(-4.8996166)"
         r="26.576984" />
      <path
         style="font-variation-settings:normal;vector-effect:none;fill:#ffffff;fill-opacity:1;stroke:#ffffff;stroke-width:2.86194;stroke-linecap:round;stroke-linejoin:round;stroke-miterlimit:4;stroke-dasharray:none;stroke-dashoffset:0;stroke-opacity:1;-inkscape-stroke:none;stop-color:#000000"
         id="path65-7"
         d="m 319.53994,489.9811 c -0.0234,0.0993 -0.0456,0.19856 -0.07,0.29746 -0.0357,0.14391 -0.0841,0.28515 -0.1105,0.43114 -0.0858,0.47633 -0.0898,0.79338 -0.0777,1.2857 0.006,0.23984 -0.004,0.48285 0.0401,0.71872 0.046,0.24733 0.15196,0.47955 0.22801,0.71935 0.15361,0.20219 0.27513,0.43382 0.46223,0.60534 0.60657,0.55515 1.45608,0.71376 2.24625,0.58623 0.7574,-0.12215 0.99522,-0.31712 1.66452,-0.66848 2.74865,-2.05262 4.8539,-2.86934 6.59,-5.18242 0.16367,-0.21791 0.32458,-0.43925 0.46093,-0.67524 0.36746,-0.63569 0.5248,-1.26898 0.68662,-1.97312 0.021,-0.19221 0.0554,-0.38343 0.0629,-0.57666 0.0269,-0.69524 -0.11561,-1.42601 -0.41421,-2.05441 -0.0704,-0.14832 -0.15874,-0.28715 -0.23825,-0.43065 -0.10823,-0.13124 -0.20388,-0.27345 -0.32358,-0.39418 -0.46836,-0.47435 -1.07695,-0.72554 -1.73331,-0.79861 -0.1472,-0.0165 -0.29595,-0.0114 -0.4439,-0.0183 -0.4998,0.0216 -0.96286,0.20433 -1.40662,0.42182 -0.13735,0.0669 -0.27999,0.12769 -0.40364,0.21741 -5.8076,4.22041 -4.24441,2.62964 -6.24399,4.71101 -0.0943,0.11349 -0.19909,0.2195 -0.28341,0.34075 -0.20607,0.29666 -0.28275,0.51953 -0.42152,0.85378 -0.12542,0.30249 -0.25989,0.60154 -0.37172,0.90932 -0.0504,0.13877 -0.0888,0.28148 -0.13294,0.4223 -0.12783,0.6052 -0.0536,0.20809 -0.14189,0.80097 -0.0421,0.28295 -0.0723,0.38612 -0.0794,0.66803 -0.006,0.22135 0.0128,0.32716 0.0376,0.5407 0.0584,0.19649 0.10581,0.39262 0.17555,0.58524 0,0 5.93158,-4.10659 5.93158,-4.10659 v 0 c -0.0464,-0.1382 -0.10113,-0.27508 -0.11193,-0.42214 -0.0464,-0.56963 0.066,-1.14277 0.23503,-1.68504 0.31798,-0.87698 0.64037,-1.59013 1.36567,-2.21337 2.01689,-1.67458 0.35263,-0.28046 -4.91918,3.56194 -0.12314,0.0908 0.23872,-0.19193 0.366,-0.27668 0.10354,-0.0694 0.68933,-0.39944 0.81077,-0.45604 0.11889,-0.0558 0.24487,-0.0943 0.36737,-0.14161 0.12471,-0.0244 0.24766,-0.0604 0.37397,-0.073 0.47618,-0.0474 1.03017,0.0395 1.39894,0.36648 0.0928,0.0822 0.16312,0.18676 0.24472,0.28013 0.0641,0.11761 0.13678,0.23051 0.1926,0.35209 0.3206,0.69768 0.32858,1.4831 0.18696,2.22482 -0.0473,0.17683 -0.0828,0.35717 -0.14175,0.53048 -0.14465,0.42606 -0.31668,0.777 -0.57129,1.15087 -1.31469,1.9305 -5.19153,4.08512 3.67078,-2.22708 -0.22903,0.16897 -0.4432,0.36042 -0.68715,0.50664 -0.69017,0.40758 -1.7251,0.73874 -2.45347,0.21522 -0.13167,-0.0947 -0.21632,-0.24189 -0.32437,-0.36286 -0.0471,-0.18814 -0.12058,-0.37177 -0.1416,-0.56458 -0.0801,-0.73312 0.12768,-1.64251 0.53981,-2.25874 0.0634,-0.0947 0.14868,-0.17245 0.223,-0.25872 z" />
      <path
         style="font-variation-settings:normal;vector-effect:none;fill:#ffffff;fill-opacity:1;stroke:#ffffff;stroke-width:2.86194;stroke-linecap:round;stroke-linejoin:round;stroke-miterlimit:4;stroke-dasharray:none;stroke-dashoffset:0;stroke-opacity:1;-inkscape-stroke:none;stop-color:#000000"
         id="path65-7-9"
         d="m 333.56755,493.40802 c 0.0128,0.0538 0.0269,0.10709 0.0394,0.16111 0.0183,0.0787 0.0274,0.16055 0.0516,0.23674 0.0787,0.24863 0.16274,0.39513 0.30442,0.61615 0.0686,0.10794 0.13024,0.22191 0.22017,0.31459 0.095,0.0967 0.22183,0.16531 0.33281,0.24782 0.14702,0.0376 0.2831,0.10042 0.44191,0.11207 0.51462,0.0375 1.06645,-0.19316 1.50463,-0.53358 0.42005,-0.3263 0.50922,-0.50039 0.81397,-0.90015 1.0852,-1.92062 2.12252,-3.04593 2.5305,-4.72428 0.0386,-0.15818 0.0744,-0.31691 0.0916,-0.47358 0.0464,-0.42212 -0.0322,-0.76813 -0.12741,-1.14813 -0.0399,-0.0954 -0.0714,-0.19525 -0.11973,-0.28639 -0.17373,-0.32775 -0.45846,-0.61132 -0.80865,-0.79236 -0.0825,-0.0428 -0.17337,-0.0749 -0.26014,-0.11206 -0.1007,-0.0214 -0.1967,-0.0524 -0.30129,-0.0649 -0.40983,-0.0499 -0.84269,0.0525 -1.25555,0.25326 -0.0927,0.0446 -0.17994,0.10099 -0.27042,0.15068 -0.29355,0.18786 -0.52064,0.43719 -0.72689,0.69519 -0.0638,0.0795 -0.1328,0.15837 -0.18232,0.24368 -2.3247,4.00471 -1.8231,2.71865 -2.45203,4.38501 -0.0256,0.0858 -0.0592,0.17172 -0.0766,0.25714 -0.0422,0.20939 -0.0274,0.3387 -0.0193,0.54122 0.007,0.18316 0.009,0.36803 0.0256,0.54885 0.007,0.0814 0.0237,0.16039 0.0356,0.24075 0.0886,0.3226 0.0247,0.11434 0.13366,0.41727 0.0521,0.14446 0.0622,0.20246 0.13479,0.33409 0.0572,0.10312 0.0971,0.14502 0.17024,0.23398 0.0885,0.0692 0.17063,0.14189 0.26481,0.20518 0,0 2.42997,-3.99689 2.42997,-3.99689 v 0 c -0.0655,-0.0469 -0.13565,-0.0898 -0.18232,-0.15324 -0.18328,-0.24412 -0.27232,-0.54661 -0.31916,-0.85509 -0.049,-0.51488 -0.0507,-0.95636 0.21342,-1.5005 0.75032,-1.4864 0.13465,-0.25421 -1.97258,3.3862 -0.049,0.0854 0.0905,-0.17299 0.14356,-0.25724 0.0432,-0.0687 0.30364,-0.42888 0.36089,-0.49814 0.056,-0.068 0.12073,-0.13053 0.18141,-0.19585 0.068,-0.0554 0.13181,-0.11618 0.2039,-0.16696 0.27213,-0.19168 0.62745,-0.34969 0.93746,-0.33167 0.0778,0.006 0.14867,0.0273 0.22297,0.0408 0.0704,0.0311 0.14483,0.0567 0.21139,0.0923 0.38232,0.20483 0.60145,0.56145 0.71917,0.95142 0.0197,0.0979 0.0479,0.19305 0.0599,0.29336 0.0298,0.2466 0.0224,0.46867 -0.028,0.73065 -0.26009,1.35282 -1.9928,3.72287 1.58957,-2.32966 -0.091,0.1591 -0.16697,0.32317 -0.27304,0.47716 -0.30192,0.43292 -0.83108,0.95393 -1.40997,0.97434 -0.10483,0.004 -0.19546,-0.0335 -0.29322,-0.0503 -0.0795,-0.0692 -0.17355,-0.12712 -0.23875,-0.20789 -0.24799,-0.30695 -0.37179,-0.79734 -0.29331,-1.22644 0.0128,-0.0659 0.0419,-0.13209 0.0629,-0.19804 z" />
      <path
         style="font-variation-settings:normal;opacity:1;vector-effect:none;fill:#000000;fill-opacity:1;stroke:#000000;stroke-width:12.737;stroke-linecap:round;stroke-linejoin:round;stroke-miterlimit:4;stroke-dasharray:none;stroke-dashoffset:0;stroke-opacity:1;-inkscape-stroke:none;paint-order:normal;stop-color:#000000;stop-opacity:1"
         id="path13"
         d="m 311.39327,476.58645 c -0.26803,0.21288 -0.54681,0.41258 -0.80402,0.63881 -0.79867,0.70257 -2.03904,1.94258 -2.70232,2.67727 -1.41862,1.57151 -2.36993,2.68982 -3.33735,4.63957 -0.50559,1.01894 -0.84009,2.11729 -1.26016,3.17593 -0.24955,1.22059 -0.62267,2.42126 -0.74862,3.66175 -0.28107,2.76972 0.007,5.60144 0.59467,8.30952 0.59146,2.72435 1.6275,5.62593 2.84577,8.12468 0.62422,1.28037 1.3965,2.48053 2.09473,3.72084 1.95878,2.69604 2.68439,4.02091 5.20661,6.20919 2.16427,1.87778 4.43158,3.20112 7.08626,4.23307 4.3458,1.68936 7.44024,1.75592 12.3525,2.49501 3.95883,-0.10284 5.56236,0.089 9.43491,-0.95178 4.52212,-1.21543 8.96242,-3.62209 12.21481,-7.07772 1.02771,-1.09196 1.81621,-2.39383 2.7243,-3.59079 0.6203,-1.32913 1.35996,-2.60669 1.86089,-3.98737 1.37582,-3.79242 1.78982,-8.06083 1.2569,-12.0668 -0.40281,-3.02903 -0.94109,-4.05134 -1.96132,-6.85993 -0.50306,-0.97479 -0.95542,-1.97838 -1.50915,-2.92439 -0.96258,-1.64457 -2.24515,-3.38726 -3.54332,-4.77996 -0.65093,-0.69831 -1.34921,-1.35177 -2.06996,-1.9749 -1.89651,-1.6396 -2.76086,-2.1064 -4.86547,-3.49074 -2.39795,-1.34321 -3.23025,-1.88414 -5.74072,-2.99302 -0.91067,-0.40226 -1.82977,-0.79075 -2.77344,-1.10374 -2.94059,-0.97529 -7.2365,-1.54718 -9.89375,-1.80365 -0.94652,-0.0912 -1.89954,0.0685 -2.84934,0.10283 -0.93111,0.15233 -1.87187,0.25334 -2.79334,0.45686 -0.90406,0.19957 -1.79402,0.46432 -2.67507,0.75059 -1.587,0.51556 -3.24063,1.1885 -4.70349,2.00905 -1.4027,0.78676 -2.28481,1.51209 -3.55088,2.46558 -1.61244,1.36833 -0.87358,0.69262 -2.23147,2.0103 0,0 5.02484,1.17386 5.02484,1.17386 v 0 c 1.14183,-1.31837 0.51119,-0.64167 1.91104,-2.0115 1.31578,-1.0779 1.7909,-1.55128 3.31668,-2.42421 2.14863,-1.22935 4.76378,-2.17635 7.17503,-2.67545 0.91037,-0.18854 1.83906,-0.27165 2.75862,-0.40737 0.95058,-0.0128 1.95313,0.27607 2.85174,-0.0371 0.50056,-0.17446 -2.0547,-0.52791 -1.53518,-0.42173 0.95342,0.19499 1.90745,0.40055 2.83825,0.68806 0.97262,0.30042 1.92374,0.67395 2.86196,1.07264 2.47951,1.05359 3.31857,1.61185 5.65701,2.93035 2.08372,1.37148 2.88432,1.80778 4.78331,3.40932 2.24937,1.89703 4.23717,4.11561 5.81318,6.62527 0.58238,0.92746 1.06034,1.91843 1.59051,2.87763 1.1021,2.76816 1.6653,3.75209 2.14842,6.75842 0.636,3.9576 0.3324,8.12772 -0.9951,11.9074 -0.47669,1.3572 -1.19542,2.61249 -1.79308,3.91872 -2.39324,3.20982 -2.72619,4.17276 -6.06613,6.52717 -1.28959,0.90908 -2.68123,1.6763 -4.11502,2.32502 -2.98192,1.34923 -5.9774,2.08398 -9.22551,2.3656 -1.59161,0.13791 -3.19535,0.0301 -4.79303,0.0452 -2.15183,0.0288 -1.60621,0.11349 -5.0575,-1.19336 -2.62295,-0.99304 -4.85183,-2.27368 -7.00762,-4.09234 -2.58059,-2.17704 -3.28302,-3.4226 -5.31625,-6.11462 -0.70314,-1.22508 -1.48094,-2.40897 -2.10934,-3.67525 -2.42318,-4.88316 -3.96827,-10.65841 -3.21572,-16.14742 0.16604,-1.21166 0.57886,-2.37409 0.86827,-3.56113 0.4626,-1.02296 0.8375,-2.09221 1.38781,-3.06892 1.02381,-1.81705 2.16063,-3.06078 3.66048,-4.45044 0.78538,-0.72771 2.22103,-1.86389 3.19748,-2.45623 0.32896,-0.19945 0.69031,-0.33776 1.03546,-0.50653 z" />
      <ellipse
         style="fill:#ffffff;stroke-width:0.483885"
         id="path14-1"
         cx="-453.17612"
         cy="533.87439"
         rx="86.002655"
         ry="35.307175"
         transform="matrix(-0.97717768,0.21242358,0.22957752,0.97329038,0,0)" />
      <path
         style="font-variation-settings:normal;vector-effect:none;fill:#000000;fill-opacity:1;stroke:#000000;stroke-width:12.737;stroke-linecap:round;stroke-linejoin:round;stroke-miterlimit:4;stroke-dasharray:none;stroke-dashoffset:0;stroke-opacity:1;-inkscape-stroke:none;paint-order:normal;stop-color:#000000"
         id="path10-2"
         d="m 650.60234,416.82238 c -1.78605,3.24975 -4.10513,6.14269 -6.77387,8.69921 -5.93927,5.68958 -9.49204,9.03857 -16.25123,13.16634 -3.23224,1.9741 -6.63966,3.6458 -9.9596,5.46856 -4.09737,1.85737 -8.14923,3.8174 -12.29208,5.57206 -8.60448,3.64423 -17.80624,7.07628 -26.74878,9.81927 -7.77399,2.38456 -16.59116,4.61146 -24.66736,5.91247 -3.54396,0.57088 -7.13636,0.82026 -10.70455,1.23044 -10.42495,0.78889 -20.97378,0.41087 -31.27129,-1.75127 -4.8531,-1.01895 -5.9666,-1.49247 -10.52884,-2.94663 -3.80052,-1.35672 -7.69778,-2.66656 -11.13683,-4.86064 -1.06341,-0.67847 -1.33704,-0.94318 -2.27951,-1.71109 -1.03603,-0.97351 -0.52872,-0.50334 -1.52093,-1.41178 0,0 3.99972,-3.95713 3.99972,-3.95713 v 0 c 0.97954,0.91608 0.4879,0.44523 1.4739,1.41359 0.87849,0.73924 1.19066,1.03734 2.17279,1.70445 3.31068,2.24877 7.08799,3.65189 10.80008,5.02924 4.61214,1.53427 5.43632,1.93396 10.37152,3.01602 10.1438,2.22409 20.54771,2.70233 30.84473,2.02707 3.5269,-0.38096 7.07701,-0.60113 10.58074,-1.14288 8.04865,-1.24453 16.71933,-3.38552 24.46461,-5.75245 8.86876,-2.71029 18.25528,-6.22452 26.75745,-9.89886 4.1911,-1.81126 8.27691,-3.85496 12.41532,-5.78249 14.09889,-7.99305 5.87617,-2.87066 17.48718,-10.99445 0.58829,-0.41148 1.28461,-0.67684 1.81011,-1.16679 2.57988,-2.40487 4.73443,-5.18281 6.49101,-8.24241 z" />
      <path
         style="font-variation-settings:normal;vector-effect:none;fill:#000000;fill-opacity:1;stroke:#000000;stroke-width:12.737;stroke-linecap:round;stroke-linejoin:round;stroke-miterlimit:4;stroke-dasharray:none;stroke-dashoffset:0;stroke-opacity:1;-inkscape-stroke:none;paint-order:normal;stop-color:#000000"
         id="path11-7"
         d="m 482.81414,446.14558 c -0.11008,-3.9449 0.53436,-7.87919 1.63828,-11.63862 0.44762,-1.52418 0.89695,-3.05509 1.51422,-4.5153 0.73487,-1.73847 1.68828,-3.37153 2.53243,-5.05731 1.25337,-1.82973 2.40858,-3.73282 3.76008,-5.48919 1.48969,-1.93586 3.05854,-3.81647 4.75198,-5.5726 5.06824,-5.25593 9.58481,-9.73034 15.6094,-13.66514 6.65874,-4.34888 10.20943,-5.57291 17.59599,-8.89312 3.58308,-1.26612 7.11742,-2.67586 10.74913,-3.79834 11.09794,-3.43009 22.82193,-5.76041 34.42875,-6.73201 9.10144,-0.76192 11.24862,-0.3895 20.17411,0.0146 2.8435,0.3257 5.69794,0.55578 8.53054,0.97714 2.44326,0.36347 4.86908,0.85631 7.28685,1.37589 5.36926,1.15391 10.7003,2.70215 15.77645,4.86709 1.36183,0.5808 2.67781,1.26846 4.01675,1.90271 5.6045,2.96798 10.61661,6.9362 15.06859,11.47062 0.69771,0.71066 1.35684,1.4588 2.03528,2.1882 1.88129,2.04729 3.35088,4.40243 4.77812,6.77493 0,0 -4.0541,3.77943 -4.0541,3.77943 v 0 c -1.38836,-2.35785 -2.77641,-4.72806 -4.59722,-6.78743 -0.6603,-0.73306 -1.29841,-1.48709 -1.98085,-2.19922 -4.35336,-4.54312 -9.34288,-8.44305 -14.8589,-11.42755 -1.32122,-0.63428 -2.62164,-1.31629 -3.96374,-1.9028 -4.99298,-2.18214 -10.2185,-3.80985 -15.50669,-5.02435 -2.37793,-0.54616 -4.76453,-1.06543 -7.1707,-1.45122 -2.79505,-0.4482 -5.61466,-0.69943 -8.42197,-1.04912 -8.75797,-0.44165 -11.05614,-0.83217 -19.98697,-0.11207 -11.6304,0.93761 -23.25092,3.2806 -34.34568,6.78529 -3.64595,1.15171 -7.18892,2.60075 -10.7834,3.9011 -7.50811,3.46566 -10.92765,4.66398 -17.67579,9.16343 -0.5832,0.38876 -6.89633,5.00416 -8.72241,6.98173 -4.79702,5.195 -4.54924,5.23903 -8.42776,10.84836 -0.83254,1.64531 -1.77685,3.23638 -2.49758,4.93592 -0.6063,1.42971 -1.03704,2.93293 -1.47283,4.42685 -1.05859,3.62894 -1.70744,7.43742 -1.48761,11.24724 z" />
      <circle
         style="fill:#008080;stroke-width:0.483846"
         id="path15-0"
         cx="-278.66052"
         cy="647.46069"
         transform="matrix(-0.8676559,0.49716521,0.49716521,0.8676559,0,0)"
         r="26.576984" />
      <path
         style="font-variation-settings:normal;vector-effect:none;fill:#ffffff;fill-opacity:1;stroke:#ffffff;stroke-width:2.86194;stroke-linecap:round;stroke-linejoin:round;stroke-miterlimit:4;stroke-dasharray:none;stroke-dashoffset:0;stroke-opacity:1;-inkscape-stroke:none;stop-color:#000000"
         id="path65-7-3"
         d="m 552.53,412.93812 c -0.0234,0.0993 -0.0454,0.19856 -0.07,0.29746 -0.0357,0.14392 -0.0841,0.28515 -0.11051,0.43116 -0.0858,0.47633 -0.0898,0.79336 -0.0777,1.2857 0.006,0.23982 -0.004,0.48283 0.0401,0.7187 0.0462,0.24733 0.15198,0.47956 0.22801,0.71935 0.15361,0.20219 0.27514,0.43383 0.46225,0.60534 0.60656,0.55517 1.45607,0.71377 2.24624,0.58623 0.75739,-0.12215 0.99522,-0.31712 1.66451,-0.66848 2.74865,-2.0526 4.8539,-2.86934 6.59001,-5.18242 0.16368,-0.2179 0.32457,-0.43925 0.46093,-0.67524 0.36745,-0.63568 0.5248,-1.26898 0.68662,-1.97312 0.021,-0.19221 0.0554,-0.38343 0.0629,-0.57666 0.0268,-0.69524 -0.11562,-1.42601 -0.41421,-2.05441 -0.0704,-0.14831 -0.15874,-0.28714 -0.23825,-0.43064 -0.10823,-0.13124 -0.20388,-0.27346 -0.32359,-0.39418 -0.46836,-0.47436 -1.07694,-0.72555 -1.73329,-0.79862 -0.14721,-0.0165 -0.29595,-0.0114 -0.4439,-0.0183 -0.49982,0.0216 -0.96288,0.20431 -1.40664,0.4218 -0.13734,0.0669 -0.27999,0.12768 -0.40363,0.21742 -5.8076,4.22041 -4.24442,2.62963 -6.24399,4.711 -0.0943,0.11349 -0.19909,0.2195 -0.28342,0.34074 -0.20605,0.29667 -0.28275,0.51954 -0.42151,0.8538 -0.12542,0.30248 -0.2599,0.60153 -0.37172,0.90931 -0.0504,0.13876 -0.0888,0.28149 -0.13295,0.42229 -0.12783,0.60523 -0.0535,0.2081 -0.14189,0.80099 -0.042,0.28293 -0.0722,0.38611 -0.0794,0.66802 -0.006,0.22134 0.0128,0.32716 0.0376,0.5407 0.0584,0.1965 0.10596,0.39262 0.17556,0.58525 0,0 5.93157,-4.1066 5.93157,-4.1066 v 0 c -0.0464,-0.1382 -0.10113,-0.27508 -0.11192,-0.42214 -0.0464,-0.56963 0.066,-1.14277 0.23502,-1.68503 0.31799,-0.87698 0.64038,-1.59015 1.36568,-2.21337 2.01689,-1.67458 0.35263,-0.28047 -4.91918,3.56193 -0.12315,0.0908 0.23872,-0.19192 0.36599,-0.27668 0.10355,-0.0695 0.68934,-0.39945 0.81079,-0.45605 0.11889,-0.0558 0.24486,-0.0943 0.36736,-0.14146 0.12471,-0.0246 0.24765,-0.0604 0.37396,-0.073 0.4762,-0.0473 1.03019,0.0395 1.39894,0.36648 0.0928,0.0822 0.16313,0.18677 0.24473,0.28015 0.0641,0.1176 0.13678,0.23051 0.1926,0.35207 0.32061,0.69768 0.32858,1.48311 0.18696,2.22482 -0.0473,0.17683 -0.0828,0.35719 -0.14175,0.53048 -0.14465,0.42606 -0.31668,0.77702 -0.57129,1.15088 -1.31467,1.93049 -5.19153,4.08512 3.67078,-2.22709 -0.22903,0.16898 -0.44321,0.36043 -0.68714,0.50665 -0.69017,0.40759 -1.72512,0.73872 -2.45347,0.21521 -0.13167,-0.0947 -0.21632,-0.24189 -0.32438,-0.36287 -0.0472,-0.18813 -0.12044,-0.37176 -0.14161,-0.56457 -0.0801,-0.73311 0.12769,-1.64251 0.53982,-2.25873 0.0634,-0.0947 0.14868,-0.17246 0.22299,-0.25873 z" />
      <path
         style="font-variation-settings:normal;vector-effect:none;fill:#000000;fill-opacity:1;stroke:#000000;stroke-width:12.737;stroke-linecap:round;stroke-linejoin:round;stroke-miterlimit:4;stroke-dasharray:none;stroke-dashoffset:0;stroke-opacity:1;-inkscape-stroke:none;paint-order:normal;stop-color:#000000"
         id="path13-9"
         d="m 567.7895,392.10702 c 0.34155,0.0224 0.6844,0.0278 1.02467,0.0673 1.05661,0.12272 2.78238,0.43569 3.74595,0.66195 2.06109,0.48386 3.4799,0.86148 5.38543,1.91336 0.99583,0.54968 1.89626,1.26205 2.84444,1.89307 0.90019,0.86125 1.89061,1.63576 2.70056,2.58373 1.80836,2.11666 3.18419,4.60837 4.24308,7.16926 1.0652,2.57627 1.86587,5.55144 2.28734,8.29918 0.21601,1.40799 0.26461,2.83433 0.39693,4.25149 -0.075,3.33166 0.0831,4.8339 -0.74409,8.06904 -0.70976,2.77603 -1.81996,5.15495 -3.41451,7.51496 -2.61034,3.86341 -5.11614,5.68027 -8.73326,9.08518 -3.31271,2.16993 -4.52164,3.24073 -8.29767,4.59035 -4.40945,1.57605 -9.42993,2.12627 -14.07129,1.13774 -1.46659,-0.31242 -2.85614,-0.93353 -4.28424,-1.40032 -1.26678,-0.73934 -2.60233,-1.36831 -3.80033,-2.21802 -3.29057,-2.33401 -6.06154,-5.60697 -7.90469,-9.20344 -1.3938,-2.71934 -1.53348,-3.86619 -2.29416,-6.75591 -0.1416,-1.08777 -0.34122,-2.17033 -0.42478,-3.2633 -0.1452,-1.90001 -0.0834,-4.06291 0.19081,-5.947 0.13749,-0.94469 0.33924,-1.87949 0.57696,-2.80216 0.62535,-2.42775 1.06999,-3.30368 2.01168,-5.64012 1.20631,-2.46966 1.58242,-3.38829 3.01464,-5.72944 0.51953,-0.84924 1.05382,-1.69199 1.65129,-2.48661 1.86186,-2.47625 5.06751,-5.39271 7.10579,-7.11671 0.72599,-0.61415 1.60047,-1.02539 2.40073,-1.53809 0.85211,-0.40503 1.68296,-0.85772 2.55633,-1.21515 0.85681,-0.3508 1.73914,-0.63995 2.62641,-0.90637 1.59813,-0.47992 3.34064,-0.8684 5.01041,-1.02692 1.6011,-0.15198 2.73925,-0.0582 4.32296,0.006 2.10467,0.2066 1.1125,0.0719 2.97908,0.38176 0,0 -3.46206,3.82634 -3.46206,3.82634 v 0 c -1.68936,-0.43348 -0.78564,-0.23625 -2.71639,-0.5652 -1.69542,-0.13678 -2.35555,-0.25538 -4.10685,-0.10411 -2.46627,0.213 -5.15529,0.92378 -7.4216,1.88657 -0.8557,0.36347 -1.66644,0.824 -2.49961,1.23606 -0.78838,0.53122 -1.4483,1.33916 -2.36532,1.59346 -0.51084,0.14175 1.38841,-1.604 1.02179,-1.22089 -0.67275,0.70313 -1.33984,1.41549 -1.9413,2.18186 -0.62839,0.80084 -1.19751,1.64951 -1.74173,2.51151 -1.43827,2.27804 -1.81009,3.21473 -2.98152,5.63021 -0.93186,2.31398 -1.34153,3.12854 -1.99054,5.52645 -0.76872,2.8403 -1.13937,5.79597 -1.00573,8.75644 0.0494,1.09403 0.22085,2.18084 0.33121,3.27121 0.6704,2.90308 0.76775,4.0326 2.08259,6.77898 1.73086,3.61542 4.35514,6.87048 7.59875,9.2215 1.16467,0.8442 2.47032,1.46678 3.70547,2.2002 3.79514,1.2757 4.61714,1.87766 8.70343,1.91108 1.57773,0.0128 3.15861,-0.14885 4.70664,-0.4321 3.21951,-0.58897 6.10027,-1.69078 8.93068,-3.30895 1.38682,-0.79298 2.64381,-1.79478 3.96573,-2.69221 1.78527,-1.20166 1.38495,-0.82141 3.4778,-3.86101 1.59064,-2.30997 2.69355,-4.63192 3.43003,-7.35448 0.88161,-3.25913 0.7497,-4.68301 0.88806,-8.05376 -0.1196,-1.40745 -0.15452,-2.82355 -0.35897,-4.22232 -0.78883,-5.39393 -2.80746,-11.0212 -6.55185,-15.10473 -0.82655,-0.90142 -1.82776,-1.62192 -2.74162,-2.43288 -0.96282,-0.57747 -1.87987,-1.24294 -2.88844,-1.7324 -1.87631,-0.91067 -3.51905,-1.28569 -5.54334,-1.57386 -1.06002,-0.15104 -2.88712,-0.26735 -4.0271,-0.1982 -0.38399,0.0234 -0.75979,0.11548 -1.13962,0.17337 z" />
      <path
         style="font-variation-settings:normal;vector-effect:none;fill:#ffffff;fill-opacity:1;stroke:#ffffff;stroke-width:2.86194;stroke-linecap:round;stroke-linejoin:round;stroke-miterlimit:4;stroke-dasharray:none;stroke-dashoffset:0;stroke-opacity:1;-inkscape-stroke:none;stop-color:#000000"
         id="path65-7-9-6"
         d="m 566.55761,416.36504 c 0.0128,0.0537 0.0268,0.10709 0.0393,0.16111 0.0183,0.0787 0.0274,0.16056 0.0516,0.23674 0.0787,0.24863 0.16276,0.39513 0.30442,0.61615 0.0686,0.10794 0.13025,0.22191 0.22019,0.31459 0.095,0.0967 0.22181,0.16531 0.3328,0.24784 0.14703,0.0376 0.2831,0.10042 0.44191,0.11206 0.51462,0.0375 1.06645,-0.19315 1.50463,-0.53358 0.42005,-0.32629 0.50922,-0.50039 0.81397,-0.90014 1.0852,-1.92061 2.12252,-3.04593 2.5305,-4.72428 0.0386,-0.15819 0.0744,-0.3169 0.0916,-0.47359 0.0465,-0.4221 -0.0322,-0.76811 -0.1274,-1.14812 -0.0399,-0.0955 -0.0715,-0.19526 -0.11974,-0.2864 -0.17373,-0.32773 -0.45846,-0.61132 -0.80866,-0.79235 -0.0825,-0.0428 -0.17336,-0.0749 -0.26013,-0.11207 -0.10071,-0.0214 -0.19671,-0.0524 -0.3013,-0.0649 -0.40981,-0.0498 -0.84269,0.0526 -1.25554,0.25325 -0.0928,0.0446 -0.17995,0.10099 -0.27041,0.1507 -0.29357,0.18784 -0.52065,0.43717 -0.7269,0.69517 -0.0638,0.0795 -0.13281,0.15837 -0.18232,0.24368 -2.32471,4.00472 -1.8231,2.71866 -2.45204,4.38501 -0.0256,0.0858 -0.0592,0.17172 -0.0766,0.25714 -0.0422,0.20939 -0.0274,0.3387 -0.0195,0.54123 0.007,0.18315 0.009,0.36804 0.0256,0.54886 0.007,0.0814 0.0237,0.16037 0.0357,0.24075 0.0888,0.3226 0.0247,0.11434 0.13366,0.41725 0.0521,0.14447 0.0622,0.20246 0.13479,0.33411 0.0572,0.10312 0.0972,0.14502 0.17025,0.23396 0.0885,0.0692 0.17062,0.14189 0.2648,0.20518 0,0 2.42997,-3.99689 2.42997,-3.99689 v 0 c -0.0655,-0.0469 -0.13565,-0.0898 -0.18232,-0.15324 -0.18328,-0.24412 -0.27232,-0.54661 -0.31916,-0.85509 -0.049,-0.51488 -0.0507,-0.95636 0.21342,-1.5005 0.75032,-1.48639 0.13465,-0.25421 -1.97258,3.38622 -0.049,0.0854 0.0905,-0.173 0.14356,-0.25725 0.0432,-0.0688 0.30364,-0.42889 0.36089,-0.49815 0.056,-0.068 0.12073,-0.13053 0.18141,-0.19585 0.068,-0.0554 0.13181,-0.11618 0.2039,-0.16696 0.27214,-0.19166 0.62746,-0.34969 0.93746,-0.33165 0.078,0.006 0.14867,0.0273 0.22298,0.0408 0.0705,0.0311 0.14483,0.0567 0.21138,0.0923 0.38232,0.20482 0.60145,0.56144 0.71917,0.95141 0.0198,0.0979 0.0479,0.19307 0.0599,0.29338 0.0298,0.2466 0.0224,0.46865 -0.028,0.73064 -0.26009,1.35282 -1.9928,3.72288 1.58958,-2.32965 -0.091,0.15909 -0.16696,0.32317 -0.27305,0.47716 -0.30192,0.43291 -0.83108,0.95393 -1.40997,0.97433 -0.10483,0.004 -0.19546,-0.0335 -0.29322,-0.0503 -0.0795,-0.0692 -0.17355,-0.12712 -0.23875,-0.2079 -0.24799,-0.30695 -0.37179,-0.79734 -0.29331,-1.22644 0.0128,-0.0658 0.0419,-0.13209 0.0629,-0.19804 z" />
      <path
         style="font-variation-settings:normal;opacity:1;vector-effect:none;fill:#ffffff;fill-opacity:1;stroke:#000000;stroke-width:12.737;stroke-linecap:round;stroke-linejoin:round;stroke-miterlimit:4;stroke-dasharray:none;stroke-dashoffset:0;stroke-opacity:1;-inkscape-stroke:none;paint-order:normal;stop-color:#000000;stop-opacity:1"
         id="path17"
         d="m 364.66642,27.78442 c -1.64949,3.579944 -3.35386,7.127135 -4.38147,10.943879 -0.37181,1.380935 -1.84064,8.26421 -2.07063,9.326931 -2.68296,11.314629 -5.47638,22.646819 -6.88253,34.203629 -0.27005,2.21942 -0.42062,4.45138 -0.6309,6.67707 -0.76822,12.495611 1.55734,24.946051 6.97766,36.295611 1.2577,2.63348 2.80752,5.1214 4.21131,7.68211 4.76126,7.46148 10.58187,14.2199 17.68241,19.62623 5.69512,4.33625 15.4192,9.59352 21.15429,12.40732 2.62271,1.28678 5.42777,2.17507 8.14168,3.26263 13.66867,4.64582 28.19502,5.31848 42.45307,3.44616 2.38725,-0.31349 4.7463,-0.8089 7.11944,-1.21336 6.87703,-1.6209 13.85423,-3.2618 20.14467,-6.55729 2.42014,-1.26786 4.25598,-2.59554 6.50901,-4.11486 6.53441,-4.21798 12.15544,-9.51764 17.23953,-15.32775 2.33199,-2.58471 4.36629,-5.36581 6.26568,-8.26466 0,0 -6.08426,-3.50216 -6.08426,-3.50216 v 0 c -1.86838,2.87823 -3.8723,5.64002 -6.17893,8.20197 -5.05471,5.76451 -10.66245,10.98198 -17.14932,15.17136 -2.15384,1.442 -4.11224,2.83766 -6.42053,4.04241 -6.2166,3.24458 -13.1187,4.88467 -19.90785,6.49305 -2.35746,0.39508 -4.70163,0.87718 -7.07239,1.18519 -14.20148,1.84499 -28.62993,1.08153 -42.20225,-3.66487 -2.69682,-1.1022 -5.39227,-2.20764 -8.09045,-3.3066 -0.72958,-0.29717 -1.51676,-0.47985 -2.19277,-0.88176 -10.75055,-6.39116 -18.52508,-13.83147 -25.27534,-24.29108 -1.40895,-2.53548 -2.96342,-4.99742 -4.22678,-7.60643 -5.43686,-11.22801 -7.73672,-23.57707 -7.03181,-35.966341 0.20271,-2.21641 0.34696,-4.43876 0.60813,-6.64921 1.36346,-11.53902 4.09832,-22.86394 6.94256,-34.11743 0.11221,-0.496775 1.86051,-8.298834 2.11683,-9.229831 1.03556,-3.761188 2.72337,-7.265588 4.42949,-10.763423 z" />
      <ellipse
         style="fill:#333333;fill-opacity:1;stroke:#000000;stroke-width:12.8981;stroke-linecap:round;stroke-linejoin:round;stroke-dasharray:none;stroke-dashoffset:0;stroke-opacity:1;paint-order:normal"
         id="path72-2"
         cx="350.43091"
         cy="-209.65457"
         rx="89.275124"
         ry="41.300972"
         transform="matrix(0.79427793,0.60755459,-0.76831919,0.64006689,0,0)" />
      <path
         style="font-variation-settings:normal;opacity:1;vector-effect:none;fill:#000000;fill-opacity:1;stroke:#000000;stroke-width:12.737;stroke-linecap:round;stroke-linejoin:round;stroke-miterlimit:4;stroke-dasharray:none;stroke-dashoffset:0;stroke-opacity:1;-inkscape-stroke:none;paint-order:normal;stop-color:#000000;stop-opacity:1"
         id="path18"
         d="m 387.90032,164.24889 c -4.21256,4.97111 -8.75468,9.6961 -12.66812,14.91682 -2.63706,3.51795 -3.62896,5.41084 -5.84315,9.1431 0,0 5.96595,3.45186 5.96595,3.45186 v 0 c 2.18756,-3.73051 3.12933,-5.56578 5.75119,-9.07643 3.91359,-5.24022 8.47071,-9.97751 12.98607,-14.69081 z" />
      <path
         style="font-variation-settings:normal;opacity:1;vector-effect:none;fill:#000000;fill-opacity:1;stroke:#000000;stroke-width:12.737;stroke-linecap:round;stroke-linejoin:round;stroke-miterlimit:4;stroke-dasharray:none;stroke-dashoffset:0;stroke-opacity:1;-inkscape-stroke:none;paint-order:normal;stop-color:#000000;stop-opacity:1"
         id="path20"
         d="m 195.78321,312.04897 c -5.32115,-10.83445 -10.33112,-21.8176 -15.2442,-32.84195 -0.56053,-3.61516 -3.60963,-6.48984 -4.30062,-10.07553 -0.14959,-0.77596 -0.11746,-1.8886 0.55431,-2.30496 0.94224,-0.58403 2.23032,-0.27878 3.32427,-0.0991 4.97743,0.81724 11.20657,3.41917 15.69822,5.06177 9.84126,3.8746 19.51165,8.15994 29.19478,12.4081 0,0 -4.53266,-3.58617 -4.53266,-3.58617 v 0 c -9.69218,-4.1785 -19.36866,-8.39711 -29.16006,-12.34027 -3.17568,-1.19089 -6.30202,-2.52257 -9.52695,-3.57262 -1.47821,-0.48134 -8.49762,-3.24711 -11.08108,-1.1146 -0.73378,0.60578 -0.61505,1.89691 -0.40699,2.82543 0.82051,3.66188 4.04621,6.5166 4.66054,10.24806 3.11361,6.83362 6.19939,13.67925 9.22534,20.55224 1.40009,3.18014 2.82144,6.35146 4.16314,9.55669 0.31915,0.7623 0.5993,1.54032 0.89895,2.31052 z" />
      <path
         style="font-variation-settings:normal;opacity:1;vector-effect:none;fill:#000000;fill-opacity:1;stroke:#000000;stroke-width:12.737;stroke-linecap:round;stroke-linejoin:round;stroke-miterlimit:4;stroke-dasharray:none;stroke-dashoffset:0;stroke-opacity:1;-inkscape-stroke:none;paint-order:normal;stop-color:#000000;stop-opacity:1"
         id="path23"
         d="m 555.63754,529.06277 c 0.5391,-1.13226 0.95135,-2.33418 1.61725,-3.39676 1.28021,-2.04269 2.57176,-4.11003 4.20101,-5.88682 6.17157,-6.73046 13.21532,-11.85705 21.12505,-16.4629 12.58274,-7.32694 20.19221,-9.85232 33.68036,-15.3303 16.75488,-5.36538 17.01012,-6.13958 34.41706,-8.94831 5.40194,-0.87164 10.8675,-1.28848 16.30124,-1.93274 0,0 -4.89097,-3.46356 -4.89097,-3.46356 v 0 c -5.41135,0.67898 -10.85411,1.14265 -16.23403,2.0369 -17.76507,2.95287 -17.34443,3.52338 -34.41325,9.08224 -13.31552,5.40617 -21.44834,8.19956 -33.96553,15.28662 -8.10381,4.58822 -15.33029,9.64732 -21.80583,16.30256 -1.7144,1.76197 -3.10527,3.81881 -4.50044,5.84297 -0.7338,1.06467 -1.24633,2.26597 -1.8695,3.39889 z" />
      <path
         style="font-variation-settings:normal;opacity:1;vector-effect:none;fill:#000000;fill-opacity:1;stroke:#000000;stroke-width:12.737;stroke-linecap:round;stroke-linejoin:round;stroke-miterlimit:4;stroke-dasharray:none;stroke-dashoffset:0;stroke-opacity:1;-inkscape-stroke:none;paint-order:normal;stop-color:#000000;stop-opacity:1"
         id="path24"
         d="m 575.40298,562.09022 c 4.33175,-7.03089 10.72438,-12.14031 17.47574,-16.75756 8.76135,-5.99182 16.30391,-10.1276 26.1572,-14.26391 5.03221,-2.11248 10.25586,-3.73622 15.38377,-5.60434 18.2843,-5.52071 37.27152,-8.4972 56.3422,-9.26907 7.07393,-0.28634 10.22209,-0.096 16.99043,0.0959 0,0 -5.42576,-3.95918 -5.42576,-3.95918 v 0 c -6.68014,-0.0852 -9.76897,-0.21976 -16.74992,0.15051 -19.00203,1.00801 -37.89941,4.1167 -56.12382,9.63156 -5.15462,1.87363 -10.40174,3.50996 -15.46385,5.62089 -9.98009,4.16186 -17.53516,8.27045 -26.4888,14.19497 -6.93685,4.59001 -13.56378,9.61481 -18.25937,16.57365 z" />
      <path
         style="font-variation-settings:normal;vector-effect:none;fill:#000000;fill-opacity:1;stroke:#000000;stroke-width:12.737;stroke-linecap:round;stroke-linejoin:round;stroke-miterlimit:4;stroke-dasharray:none;stroke-dashoffset:0;stroke-opacity:1;-inkscape-stroke:none;paint-order:normal;stop-color:#000000"
         id="path23-9"
         d="m 398.87311,578.25757 c -1.22756,-0.25632 -2.43376,-0.65586 -3.68262,-0.76913 -2.40091,-0.2177 -4.82825,-0.44132 -7.22877,-0.22011 -9.09314,0.83756 -17.43778,3.34026 -25.8922,6.84752 -13.44919,5.57929 -20.06591,10.10702 -32.59161,17.52631 -14.41372,10.08753 -15.18444,9.82197 -27.958,21.97627 -3.96403,3.77188 -7.60461,7.86972 -11.40692,11.80456 0,0 0.20418,-5.98965 0.20418,-5.98965 v 0 c 3.81639,-3.89601 7.48047,-7.94736 11.44917,-11.68802 13.10508,-12.35206 13.30453,-11.6719 28.0623,-21.89215 12.364,-7.32537 19.51091,-12.10742 32.72948,-17.77976 8.55784,-3.67239 16.95937,-6.3614 26.1767,-7.48646 2.44032,-0.29762 4.91942,-0.15964 7.37513,-0.0447 1.29162,0.0605 2.55807,0.37973 3.83706,0.56967 z" />
      <path
         style="font-variation-settings:normal;vector-effect:none;fill:#000000;fill-opacity:1;stroke:#000000;stroke-width:12.737;stroke-linecap:round;stroke-linejoin:round;stroke-miterlimit:4;stroke-dasharray:none;stroke-dashoffset:0;stroke-opacity:1;-inkscape-stroke:none;paint-order:normal;stop-color:#000000"
         id="path24-2"
         d="m 413.19476,613.98397 c -8.21848,-0.80864 -16.15527,1.18621 -23.91748,3.76459 -10.0731,3.34599 -17.93106,6.84556 -27.18838,12.184 -4.72781,2.72638 -9.18257,5.90101 -13.77386,8.85153 -15.46321,11.2108 -29.32699,24.52135 -41.48657,39.23294 -4.5104,5.45701 -6.26478,8.07795 -10.20957,13.58116 0,0 0.13351,-6.71536 0.13351,-6.71536 v 0 c 3.9763,-5.3685 5.73915,-7.90841 10.26006,-13.24062 12.30594,-14.51401 26.22055,-27.67296 41.6429,-38.83967 4.61181,-2.96841 9.09079,-6.15413 13.83548,-8.90528 9.3544,-5.42386 17.19833,-8.94988 27.33425,-12.48965 7.85286,-2.7425 15.86411,-4.97508 24.24551,-4.49964 z" />
      <path
         style="fill:#000000;fill-opacity:1;stroke:#000000;stroke-width:12.737;stroke-linecap:round;stroke-linejoin:round;stroke-dasharray:none;stroke-opacity:1"
         id="path79"
         d="m 422.93389,78.374589 c 10.45304,-5.41903 20.67339,-11.28472 30.52784,-17.73346 5.74111,-3.75698 13.55809,-9.29732 19.2505,-13.286954 6.07692,-4.294094 12.06342,-8.713381 18.07276,-13.100774 1.88622,-1.377113 4.24909,-3.12132 6.21997,-4.477898 0.62727,-0.43174 1.27046,-0.839835 1.90569,-1.259745 0.3538,-0.01646 1.4138,-0.08778 1.06137,-0.05193 -2.38497,0.242724 -4.91211,-0.159464 -7.1604,0.672673 -0.78508,0.290565 -0.58255,1.5722 -0.94466,2.326946 -0.52629,1.096863 -1.12322,2.158814 -1.71709,3.220584 -1.20163,2.148336 -3.57219,6.087877 -4.79013,8.130551 -0.92206,1.531766 -1.8446,3.063239 -2.76615,4.595317 -1.88817,3.139077 -4.0078,6.64986 -5.8574,9.80739 -2.83956,4.84739 -5.59033,9.74375 -8.31898,14.65403 -3.12837,5.72381 -6.06671,11.58738 -8.21344,17.75994 -0.27271,0.78409 -0.50102,1.58293 -0.75152,2.37438 -0.47766,1.7506 -0.90209,3.5192 -1.16059,5.3169 -0.16093,1.119221 -0.23095,2.244961 -0.29191,3.372771 -0.0459,0.80666 -0.054,1.61453 -0.0615,2.4222 0,0 7.17412,-0.0185 7.17412,-0.0185 v 0 c -0.0486,-0.79386 -0.0883,-1.58844 -0.10241,-2.38378 0.006,-2.86945 0.27773,-5.732251 0.96944,-8.524561 0.20758,-0.78202 0.39531,-1.5696 0.62277,-2.34606 1.80223,-6.15123 4.44756,-12.02592 7.4164,-17.69317 2.20014,-4.10668 2.91587,-5.5035 5.24854,-9.60357 3.74575,-6.58372 7.74933,-13.015083 11.79362,-19.418176 0.90606,-1.425299 1.80771,-2.853433 2.7182,-4.275879 0.81828,-1.278344 3.64607,-5.62066 4.53835,-7.096394 0.49531,-0.819264 2.1667,-1.901277 1.41787,-2.497731 -4.14881,-3.304466 -5.00201,-2.651194 -7.41676,-1.365316 -7.81515,6.3539 -15.38212,13.014202 -23.41639,19.09802 -2.88215,2.132682 -5.71941,4.327336 -8.64636,6.398046 -3.34291,2.36495 -6.70921,4.70095 -10.15947,6.90628 -6.89748,4.40865 -13.46533,8.12971 -20.80877,11.7067 -2.74723,1.33816 -5.55853,2.54319 -8.37772,3.72209 -1.57569,0.65889 -3.20089,1.1926 -4.8013,1.78887 z" />
      <path
         style="fill:#000000;fill-opacity:1;stroke:#000000;stroke-width:12.737;stroke-linecap:round;stroke-linejoin:round;stroke-dasharray:none;stroke-opacity:1"
         id="path80"
         d="m 506.98093,19.06815 c -1.33386,-0.412795 -2.70856,-0.735855 -4.11555,-0.710985 -7.12604,0.125999 -4.91293,-0.832522 -8.07222,0.850608 -0.27497,0.349247 -0.62973,0.648424 -0.82501,1.047762 -0.40396,0.826084 -0.4233,1.821142 -0.16842,2.688738 0.13592,0.46228 0.36774,0.895904 0.62457,1.30358 0.61162,0.970753 1.05065,1.242519 1.89357,1.965556 0.35818,0.193021 0.69765,0.425797 1.07459,0.57908 0.33567,0.136424 0.68689,0.276374 1.0492,0.284585 2.12337,0.04809 5.732,0.970955 7.90646,-0.641385 0.82971,-0.615216 0.92705,-0.974833 1.44902,-1.844257 0.29001,-0.873943 0.54916,-1.424514 0.56074,-2.361016 0.006,-0.394015 -0.006,-0.803865 -0.14228,-1.173558 -0.15361,-0.416362 -0.40431,-0.803629 -0.7069,-1.128224 -0.76224,-0.817582 -1.63424,-1.147957 -2.60382,-1.636242 -1.52359,-0.610315 -0.79493,-0.353801 -2.17877,-0.789894 0,0 -5.81297,0.784316 -5.81297,0.784316 v 0 c 1.70265,0.289668 0.83796,0.09163 2.58998,0.611723 0.94974,0.445639 1.50369,0.586762 2.22675,1.35952 0.24124,0.25785 0.45042,0.557503 0.58203,0.885189 0.24366,0.606804 0.21646,1.455986 0.0599,2.072462 -0.0911,0.358245 -0.27412,0.686554 -0.41119,1.02984 -0.56131,0.741014 -0.67458,1.056558 -1.511,1.512274 -0.30362,0.165498 -1.31727,0.309729 -0.97452,0.355245 1.58334,0.210265 3.19214,0.140629 4.78937,0.151418 0.38923,0.0018 -0.78278,-0.03437 -1.16085,-0.127093 -0.40053,-0.0982 -0.77073,-0.293673 -1.15606,-0.440537 -0.89183,-0.61218 -1.30902,-0.773838 -1.92682,-1.698363 -0.65021,-0.972911 -0.93969,-2.266489 -0.31441,-3.336945 0.1875,-0.32092 0.50853,-0.542177 0.76278,-0.813265 2.43976,-1.031175 1.44037,-0.426986 -3.24317,-0.622512 -0.37543,-0.01646 0.75373,-0.01646 1.12697,0.02615 0.436,0.05066 0.94954,0.209461 1.34262,0.430131 0.0835,0.047 0.14886,0.120701 0.22331,0.181043 z" />
      <path
         style="fill:#1a1a1a;fill-opacity:1;stroke:#000000;stroke-width:0;stroke-linecap:round;stroke-linejoin:round;stroke-dasharray:none;stroke-opacity:1"
         d="m 221.66297,319.12028 -73.47803,112.41799 13.54433,70.43052 67.7217,-20.3165 57.90204,-54.51591 159.82313,-53.83876 193.34537,-24.7184 37.58552,-52.1457 -54.17731,-68.06029 -126.30093,-18.62342 -178.78524,41.64883 z"
         id="path83" />
      <path
         style="fill:#000000;fill-opacity:1;stroke:#000000;stroke-width:12.737;stroke-linecap:round;stroke-linejoin:round;stroke-dasharray:none;stroke-opacity:1"
         id="path81"
         d="m 200.92253,350.37148 c -9.85404,6.3988 -17.79309,15.18293 -24.29642,24.91277 -2.269,3.39466 -4.23904,6.97991 -6.35858,10.4699 -10.77453,20.03906 -17.55178,41.86245 -21.78423,64.15183 -0.69161,3.64222 -1.20651,7.31577 -1.80979,10.97365 -0.99844,8.96327 -1.44401,17.20806 1.01897,25.98118 1.23809,4.40999 2.59981,7.94275 6.37123,10.83708 1.86484,1.43111 4.18492,2.14236 6.27737,3.2135 12.44196,2.08954 24.4678,1.30015 36.17327,-3.63658 7.6726,-3.23593 16.09725,-8.6643 22.79229,-13.46263 3.94344,-2.82623 7.67801,-5.93316 11.51699,-8.89972 14.42765,-11.90477 28.73341,-24.0399 44.44079,-34.26024 9.41967,-6.12908 14.69802,-8.86277 24.52766,-14.36035 20.47964,-10.57767 41.69725,-19.7829 63.58896,-27.0346 17.28767,-5.72659 24.16893,-7.22031 41.88814,-11.85852 45.66911,-11.4049 92.64746,-15.80432 139.30314,-21.12385 23.49532,-3.24316 47.22773,-6.05756 70.00965,-12.95466 10.58175,-3.2036 14.90982,-5.24063 24.93618,-9.35016 8.74995,-4.13233 17.46078,-8.56975 24.56661,-15.27203 1.75991,-1.65998 3.44873,-3.42265 4.87481,-5.3768 3.42147,-4.68833 3.98414,-7.3975 5.94619,-12.76666 1.52524,-6.13594 2.40719,-12.42478 1.48893,-18.73533 -0.27941,-1.92028 -0.64215,-3.84739 -1.28791,-5.67734 -1.95695,-5.54625 -4.10838,-8.01562 -7.42284,-12.95927 -2.1591,-2.35498 -4.18416,-4.84031 -6.47735,-7.065 -12.21514,-11.85014 -27.21077,-20.50234 -43.14831,-26.31054 -5.08766,-1.85409 -10.34286,-3.21139 -15.51427,-4.81709 -16.67921,-4.27551 -33.78302,-6.79088 -50.98014,-7.61802 -11.24451,-0.54084 -25.8566,-0.19537 -38.75118,0.5917 -5.86365,0.35792 -11.68238,1.25079 -17.52359,1.87621 -6.16329,0.94172 -12.34817,1.75167 -18.48985,2.82515 -15.56576,2.72071 -25.34413,4.87127 -40.66091,9.31609 -13.87771,4.0272 -29.51922,9.52055 -43.0111,14.628 -7.34898,2.78196 -14.61311,5.78318 -21.91969,8.67473 -32.58067,13.79857 -64.69653,28.99193 -95.12083,47.12043 -5.11847,3.04983 -10.11948,6.29252 -15.17926,9.43882 -16.06048,10.61828 -31.96188,21.5613 -46.69128,33.9921 -7.51009,6.33811 -9.02448,7.99814 -16.03563,14.71897 -6.87026,6.61176 -12.88444,14.00591 -18.89392,21.38221 l 6.61652,0.45071 c 0.21322,0 8.97298,-11.94786 18.72283,-21.31225 6.92938,-6.65469 8.5221,-8.37806 15.91418,-14.6778 14.56848,-12.41569 30.28423,-23.3985 46.22742,-33.95768 5.04013,-3.14118 10.0243,-6.37411 15.12051,-9.42351 30.28195,-18.11944 62.21334,-33.4065 94.71252,-47.08455 7.32109,-2.88427 14.5996,-5.87889 21.96317,-8.65284 13.5363,-5.09925 29.18463,-10.56784 43.11126,-14.56374 15.27068,-4.38148 25.363,-6.55791 40.88433,-9.22589 6.16936,-1.06046 12.38108,-1.85768 18.57161,-2.78653 3.94475,-0.41025 22.12464,-2.4786 28.27485,-2.61859 43.74796,-0.99562 76.51818,10.238 82.5596,12.4384 15.77645,5.74613 30.63884,14.3212 42.70332,26.08052 2.25154,2.19458 4.23492,4.64843 6.35238,6.97267 3.26147,4.90563 5.30147,7.24746 7.23314,12.72088 2.74568,7.77997 1.7564,16.19836 -0.0991,24.02005 -1.99022,5.35885 -2.48514,7.83837 -5.91788,12.50915 -1.40776,1.91553 -3.06005,3.65274 -4.78781,5.28548 -6.99929,6.61425 -15.57336,11.02771 -24.19507,15.11597 -10.04927,4.1365 -14.10539,6.0729 -24.72782,9.29504 -22.58671,6.85127 -46.11159,9.71075 -69.40762,12.95297 -46.66764,5.37892 -93.66359,9.78009 -139.34907,21.19665 -17.7237,4.64011 -24.75549,6.18218 -42.06944,11.88538 -22.04058,7.26022 -43.43589,16.42775 -64.04155,27.08201 -9.93198,5.56161 -15.05702,8.20751 -24.56684,14.41531 -15.68908,10.24146 -29.96866,22.39589 -44.39528,34.29581 -3.85662,2.94929 -7.60536,6.04519 -11.56979,8.84782 -6.81853,4.82037 -15.16136,10.08585 -22.97181,13.26665 -3.50166,1.42604 -7.23439,2.20103 -10.84607,3.31938 -1.22452,0.37914 -2.38105,1.13362 -3.66234,1.17313 -2.87346,0.0888 -5.72517,-0.53009 -8.58775,-0.79514 -2.06308,-0.98599 -4.33748,-1.61644 -6.1892,-2.95797 -3.79176,-2.74694 -5.18651,-6.15088 -6.47613,-10.48156 -2.55475,-8.57905 -2.18245,-16.93533 -1.29203,-25.74105 0.56143,-3.64854 1.02574,-7.31336 1.68431,-10.94558 4.03874,-22.27467 10.89771,-44.02942 21.80886,-63.93246 2.15786,-3.46758 4.1635,-7.03465 6.47354,-10.40276 6.66828,-9.72246 14.8299,-18.53429 25.04647,-24.55538 z"
         sodipodi:nodetypes="cscscsscsscscsccscsscsscsscsacssscscsccccscccssscssscscsscsccscscsssscsscscscc" />
      <path
         style="fill:#000000;fill-opacity:1;stroke:#000000;stroke-width:12.737;stroke-linecap:round;stroke-linejoin:round;stroke-dasharray:none;stroke-opacity:1"
         id="path82"
         d="m 185.78161,381.26314 c 3.1193,-9.09003 8.0405,-17.4301 13.0853,-25.56006 5.50413,-8.50171 11.55324,-16.70307 18.18683,-24.36448 4.61925,-5.3349 7.79478,-8.42181 12.76674,-13.5064 9.93435,-9.91375 20.47273,-19.2216 31.72673,-27.61583 7.49498,-5.59035 9.91083,-7.00828 17.7028,-12.11991 12.80529,-7.95251 26.27753,-14.81028 40.04497,-20.93274 8.96656,-3.98747 14.09219,-5.9484 23.26821,-9.63729 24.35584,-9.34867 49.29157,-17.14426 74.7114,-23.03737 5.70904,-1.32357 11.46498,-2.43632 17.19745,-3.65449 24.69348,-4.92604 49.80936,-7.35488 74.95091,-8.31779 4.12467,-0.15799 8.25269,-0.21234 12.37903,-0.31849 1.86689,0.14957 3.73338,0.3048 5.60074,0.449 10.3681,0.80072 12.43395,0.7635 22.77632,2.22254 10.942,1.54361 21.74006,3.84687 32.542,6.13857 9.40171,2.6346 11.64137,3.1604 20.82525,6.12734 6.85292,2.21384 10.54511,3.31459 16.84544,6.78292 4.7865,2.63494 8.18118,5.4032 12.48436,8.64001 5.29872,4.36076 9.10819,9.97822 12.71653,15.72101 0,0 6.9567,-0.39029 6.9567,-0.39029 v 0 c -3.65988,-5.83915 -7.59003,-11.51076 -12.95158,-15.9562 -4.2021,-3.13504 -8.0307,-6.18617 -12.64776,-8.757 -6.60639,-3.6786 -9.76767,-4.53984 -16.98898,-6.86031 -8.96113,-2.87954 -11.70255,-3.57781 -20.84108,-6.18406 -10.82429,-2.30427 -21.65105,-4.61255 -32.61297,-6.18661 -13.56621,-1.94802 -27.25294,-2.7965 -40.95931,-2.72029 -4.099,0.11562 -8.1998,0.17995 -12.29707,0.34648 -25.04005,1.01788 -50.05281,3.48201 -74.63529,8.46124 -5.73102,1.22547 -11.48455,2.35022 -17.19312,3.67649 -25.53783,5.93308 -50.61921,13.68074 -75.09465,23.07226 -9.26622,3.71329 -14.32023,5.63483 -23.36788,9.65904 -13.80542,6.14039 -27.30993,13.02742 -40.14111,21.01788 -2.97048,1.9591 -5.98059,3.8594 -8.91155,5.87719 -14.57109,10.03161 -28.09574,21.49762 -40.61262,33.98961 -4.99944,5.08806 -8.22984,8.21635 -12.88054,13.55638 -6.69165,7.6836 -12.75458,15.93411 -18.3482,24.44107 -5.16362,8.19187 -10.05371,16.63436 -13.46076,25.73137 z" />
      <path
         style="fill:#f2f2f2;fill-opacity:1;stroke:#ffffff;stroke-width:12.737;stroke-linecap:round;stroke-linejoin:round;stroke-dasharray:none;stroke-opacity:1"
         id="path92"
         d="m 206.23827,450.64214 c -1.46558,-14.1726 -0.51106,-28.4903 1.94603,-42.50135 0.81388,-4.64106 1.82738,-9.24791 2.94129,-13.82618 1.06293,-4.36846 2.39094,-8.66815 3.58639,-13.00222 1.23845,-3.7785 2.47695,-7.557 3.71545,-11.33552 0,0 -3.52516,-0.10439 -3.52516,-0.10439 v 0 c -1.06785,3.78702 -2.1357,7.57408 -3.20356,11.36111 -2.96461,11.45654 -4.09401,15.09893 -6.36147,26.86366 -1.94763,10.10555 -2.75555,16.33188 -3.91925,26.41855 -0.38175,3.30893 -0.64487,6.63078 -1.02174,9.94024 -0.23481,2.06211 -0.54205,4.11532 -0.81311,6.17298 z" />
      <path
         style="fill:#f2f2f2;fill-opacity:1;stroke:#ffffff;stroke-width:12.737;stroke-linecap:round;stroke-linejoin:round;stroke-dasharray:none;stroke-opacity:1"
         id="path93"
         d="m 245.70102,404.9083 c -0.3578,-3.62455 -0.61686,-5.67815 -0.63577,-9.69179 -0.0146,-3.18032 0.0266,-6.36458 0.23172,-9.53832 0.55492,-8.57972 1.66371,-16.61795 3.29029,-25.07605 0.82883,-4.30961 1.91169,-8.56651 2.86748,-12.84982 3.97907,-14.68722 1.93344,-7.6938 6.06893,-20.99997 0,0 -4.15431,-0.11249 -4.15431,-0.11249 v 0 c -3.26989,13.36952 -1.58841,6.35606 -5.02499,21.04501 -2.25666,10.3599 -3.48848,15.55951 -5.36707,26.03116 -1.35652,7.56133 -2.28545,13.94825 -3.19533,21.48573 -0.2555,2.11682 -0.42171,4.2436 -0.6635,6.36211 -0.12641,1.10698 -0.29398,2.20885 -0.44097,3.31328 z" />
      <path
         style="fill:#cccccc;stroke:#ffffff;stroke-width:0;stroke-linecap:round;stroke-linejoin:round;stroke-dasharray:none"
         d="m 570.76818,177.92062 49.77542,36.73898 12.1899,-83.46696 z"
         id="path1" />
    </g>
  </g>
</svg>
